# xmcd
# 
# Track frame offsets:
#   150
#   13580
#   26662
#   40075
#   52935
#   66422
#   78750
#   90730
#   104040
#   116105
#   128952
#   141830
#   154812
#   168355
#   183712
#   195782
#   207635
#   222117
#   234957
# 
# Disc length: 3309 seconds
# 
# Revision: 4
# Processed by: cddbd v1.5.2PL0 Copyright (c) Steve Scherf et al.
# Submitted via: Synapstar 1.0 
# 
DISCID=090ceb13
DTITLE=Various Artist - SAVA 10
DYEAR=1900
DGENRE=Country
TTITLE0=Kendalls - Put It Off Until Tomorrow
TTITLE1=Browns - Scarlet Ribbons (For Her Hair)
TTITLE2=David Houston - You Mean The World To Me
TTITLE3=Hank Thompson - Wild Side Of Life
TTITLE4=Buck Owens - Under Your Spell Again
TTITLE5=Lorrie Morgan - A Picture Of Me Without You
TTITLE6=Jim Reeves - He'll Have To Go
TTITLE7=Mitchell and Drusky Roy - Yes, Mr. Peters
TTITLE8=Buck Owens - Together Again
TTITLE9=Paul Wagoner and Dolly Parton - The Last Thing On My Mind
TTITLE10=Tammy Wynette - Stand By Your Man
TTITLE11=Brenda Lee - Sunday Sunrise
TTITLE12=Glen Campbell - Dreams Of The Everyday Housewife
TTITLE13=David Houston - Almost Persuaded No. 2
TTITLE14=Traditional - The Ways To Love A Man
TTITLE15=Glen Campbell - Try A Little Kindness
TTITLE16=Jim Reeves - Distant Drums
TTITLE17=Waylon Jennings and Anita Carter - I Got You
TTITLE18=Hank Williams - Lovesick Blues
EXTD=MediaType: Karaoke CD+G Producer: Other
EXTT0=
EXTT1=
EXTT2=
EXTT3=
EXTT4=
EXTT5=
EXTT6=
EXTT7=
EXTT8=
EXTT9=
EXTT10=
EXTT11=
EXTT12=
EXTT13=
EXTT14=
EXTT15=
EXTT16=
EXTT17=
EXTT18=
PLAYORDER=
